<?xml version="1.0" encoding="UTF-8"?>
<!DOCTYPE svg PUBLIC "-//W3C//DTD SVG 1.1//EN" "http://www.w3.org/Graphics/SVG/1.1/DTD/svg11.dtd">
<!-- Creator: CorelDRAW 2019 (64-Bit) -->
<svg xmlns="http://www.w3.org/2000/svg" xml:space="preserve" width="25mm" height="25mm" version="1.1" style="shape-rendering:geometricPrecision; text-rendering:geometricPrecision; image-rendering:optimizeQuality; fill-rule:evenodd; clip-rule:evenodd"
viewBox="0 0 250 250"
 xmlns:xlink="http://www.w3.org/1999/xlink"
 xmlns:xodm="http://www.corel.com/coreldraw/odm/2003">
 <defs>
  <style type="text/css">
   <![CDATA[
    .fil0 {fill:#9A8D13}
   ]]>
  </style>
 </defs>
 <g id="Слой_x0020_1">
  <metadata id="CorelCorpID_0Corel-Layer"/>
  <path class="fil0" d="M4.837 181.874l2.168 -42.268c0,0 27.456,1.625 27.455,32.694 9.213,-10.657 25.469,-19.869 40.1,-5.961 14.631,13.909 5.239,33.959 -1.445,41.907 5.961,-0.181 33.507,5.69 29.624,26.372 -22.76,2.709 -45.158,2.167 -45.158,2.167 0,0 8.309,-44.074 -52.744,-54.911z"/>
  <path class="fil0" d="M58.891 122.894c-26.11,-27.9 10.077,-37.766 21.206,-27.071 3.042,2.923 10.055,4.734 12.886,12.053 4.402,11.383 1.454,29.914 -20.951,39.042 -28.783,11.727 -74.239,-24.385 -65.569,-66.653 8.67,-42.267 43.351,-51.299 78.755,-51.66 60.331,9.393 134.389,73.335 129.692,142.336 -6.864,54.551 -39.016,67.556 -64.665,67.195 -25.65,-0.361 -63.402,-41.184 -53.106,-68.64 10.296,-27.456 39.017,-18.063 47.325,-10.115 8.309,7.947 12.283,24.565 5.781,31.068 -6.503,6.503 -23.081,10.366 -30.939,-7.607 4.179,2.503 20.544,0.405 15.946,-11.901 -3.054,-8.173 -16.798,-7.767 -20.953,1.987 -4.155,9.754 1.987,37.571 27.095,44.435 25.107,6.864 38.836,-7.948 46.964,-20.05 8.128,-12.102 10.657,-37.572 1.625,-62.86 -18.039,-50.51 -92.023,-111.77 -144.866,-79.477 -19.508,11.921 -21.675,27.094 -20.231,41.545 1.445,14.45 14.009,26.773 23.483,31.068 22.79,10.334 34.698,-5.454 26.371,-17.069 -1.715,-2.394 -6.593,-4.787 -12.554,0 -5.961,4.786 -3.295,12.374 -3.295,12.374z"/>
  <path class="fil0" d="M97.273 131.962c0,0 0.362,-18.244 -5.419,-25.831 -5.78,-7.586 -18.314,-10.447 -17.41,-24.315 0.769,-11.799 10.875,-14.317 21.894,-12.872 11.018,1.446 15.386,5.216 17.914,16.053 2.529,10.838 0.362,24.566 -16.979,46.965z"/>
  <path class="fil0" d="M103.866 133.406c0,0 8.851,-15.354 9.935,-22.037 1.083,-6.684 -1.265,-9.664 2.89,-18.606 4.154,-8.941 22.759,-14.541 35.584,-1.355 12.825,13.186 5.239,33.417 0,35.224 -5.238,1.806 -9.574,0 -17.16,1.986 -7.587,1.987 -27.095,11.2 -27.095,11.2l32.695 -37.933 -36.849 31.521z"/>
  <path class="fil0" d="M112.897 144.739c0,0 22.579,-19.327 40.281,-16.437 17.701,2.89 20.411,14.631 21.495,24.024 1.084,9.393 -13.705,22.716 -23.459,17.477 -12.397,-6.657 -3.455,-14.406 -13.39,-19.464 -9.935,-5.058 -24.927,-5.6 -24.927,-5.6z"/>
  <path class="fil0" d="M6.956 63.226c0,0 6.322,-18.785 24.386,-27.275 18.063,-8.49 28.752,-14.109 67.556,-11.019 -3.463,-4.635 -7.587,-6.864 -12.645,-6.683 -5.057,0.181 -16.256,2.394 -16.256,2.394 0,0 -12.012,-21.089 -13.548,-14.857 4.789,25.38 -30.3,23.001 -21.495,-1.084 -1.625,-2.529 -11.109,4.335 -13.366,11.38 -4.606,-9.122 -14.734,-11.382 -14.734,-11.382l0.102 58.526z"/>
  <path class="fil0" d="M217.064 146.266c0,0 9.573,18.243 -2.891,48.589 -12.463,30.346 -34.139,41.365 -34.139,41.365l58.705 -0.181c0,0 0.09,-7.406 -11.56,-14.812 9.573,-4.786 13.783,-11.665 12.338,-13.291 -11.47,4.064 -20.015,1.37 -19.925,-11.004 0.09,-12.373 18.244,-9.844 18.244,-9.844 -3.839,-11.606 -10.477,-9.754 -15.173,-14.089 0.87,-9.606 4.877,-18.245 -5.599,-26.733z"/>
 </g>
</svg>
