<?xml version="1.0" encoding="UTF-8"?>
<!DOCTYPE svg PUBLIC "-//W3C//DTD SVG 1.1//EN" "http://www.w3.org/Graphics/SVG/1.1/DTD/svg11.dtd">
<!-- Creator: CorelDRAW 2019 (64-Bit) -->
<svg xmlns="http://www.w3.org/2000/svg" xml:space="preserve" width="25mm" height="25mm" version="1.1" style="shape-rendering:geometricPrecision; text-rendering:geometricPrecision; image-rendering:optimizeQuality; fill-rule:evenodd; clip-rule:evenodd"
viewBox="0 0 250 250"
 xmlns:xlink="http://www.w3.org/1999/xlink"
 xmlns:xodm="http://www.corel.com/coreldraw/odm/2003">
 <defs>
  <style type="text/css">
   <![CDATA[
    .fil7 {fill:#66C3D0}
    .fil8 {fill:#1C1B17}
    .fil2 {fill:#212117}
    .fil5 {fill:#3C4862}
    .fil6 {fill:#442922}
    .fil1 {fill:#72140C}
    .fil4 {fill:#87784F}
    .fil3 {fill:#AA8C1E}
    .fil0 {fill:#AA8C1E}
   ]]>
  </style>
 </defs>
 <g id="Слой_x0020_1">
  <metadata id="CorelCorpID_0Corel-Layer"/>
  <path class="fil0" d="M96.233 129.22c0,0 55.045,-4.64 64.746,-43.024 9.701,-38.383 -13.919,-63.269 -42.602,-58.63 -28.682,4.64 -31.213,37.119 -19.824,46.82 11.388,9.701 22.988,15.29 32.584,1.793 1.959,-6.86 -2.742,-8.753 -2.742,-8.753l-0.738 -7.698 -6.327 -4.745c0,0 6.01,-3.057 10.228,-0.527 7.09,4.254 7.199,1.272 8.12,15.712 -1.371,17.61 -17.715,21.298 -22.777,21.09 -15.396,-0.633 -35.642,-15.291 -29.315,-41.02 6.327,-25.73 26.995,-31.318 47.03,-28.999 20.036,2.32 41.597,26.313 35.27,55.206 -10.061,42.533 -29.402,54.985 -67.748,60.999 0,0 54.201,14.975 71.705,31.214 17.505,16.239 28.155,27.416 31.74,31.423 3.586,4.007 15.607,16.028 22.145,15.29 6.538,-0.738 11.283,-3.269 11.283,-3.269 0,0 6.222,10.334 3.058,14.763 -3.163,4.429 -7.698,4.956 -14.236,4.745 -6.537,-0.211 -16.661,-12.232 -16.661,-12.232 0,0 8.254,14.455 -9.092,21.995 -0.806,-1.694 -1.372,-1.748 -1.971,-3.397 -5.161,-14.211 -4.623,-20.73 -4.623,-20.73 0,0 2.874,16.632 -5.983,18.477 -8.858,1.845 -12.707,-8.542 -12.707,-8.542 0,0 8.858,-8.436 9.279,-16.45 0.422,-8.014 0.633,-10.334 0.633,-10.334l-7.17 -9.912c0,0 -11.178,-29.526 -60.107,-37.54 -48.928,-8.014 -53.568,-6.538 -56.099,-6.538 -2.531,0 -2.794,6.748 -12.654,9.068 -0.211,6.538 0.791,7.593 -1.054,11.389 -1.846,3.796 -6.749,6.327 -6.749,6.327 0,0 -1.371,-9.648 -9.596,-11.758 -8.225,-2.109 -9.385,-1.318 -16.977,-0.263 -7.593,1.054 -9.069,-9.912 -9.069,-9.912 0,0 8.436,-2.109 14.763,-7.804 6.327,-5.694 13.919,-8.646 17.926,-13.919 4.007,-5.272 6.327,-13.708 6.327,-16.239 0,-2.531 3.143,-2.465 6.749,0 3.606,2.465 5.694,12.232 5.694,12.232 10.545,-0.369 27.628,-13.287 31.424,-16.239 3.796,-2.953 6.116,2.531 6.327,6.538 0.211,4.007 -0.21,13.393 -0.21,13.393z"/>
  <path class="fil1" d="M198.85 68.365c2.66,-3.138 2.102,-7.595 8.03,-8.993 4.213,-0.692 10.294,2.413 10.582,8.996l0.422 9.646c0,0 1.354,7.766 2.83,11.509 1.476,3.743 0.948,8.436 2.108,10.651 1.16,2.214 2.742,30.474 -20.773,42.074 -8.772,3.331 -20.275,9.335 -22.363,12.122 -19.268,26.73 -24.764,48.197 -30.468,49.776 -3.69,-1.054 10.334,-32.267 10.334,-32.267 0,0 -17.293,39.016 -20.773,36.485 -5.378,0 13.603,-31.74 13.603,-31.74 0,0 -24.57,40.493 -28.05,36.064 -3.48,-4.429 22.25,-36.38 22.25,-36.38 0,0 -28.366,35.747 -30.053,35.642 -1.687,-0.106 -3.269,-2.953 -3.269,-2.953l27.311 -30.686c0,0 -26.045,31.108 -29.947,26.152 -3.902,-4.957 26.573,-31.213 26.573,-31.213 0,0 -26.995,26.995 -26.995,19.93 0,-7.065 25.835,-22.883 25.835,-22.883 0,0 -22.302,15.606 -23.251,12.232 -1.332,-4.736 20.164,-14.254 25.571,-17.399 2.693,-1.566 -12.039,6.197 -18.941,8.187 -3.836,1.106 -4.672,-1.247 -0.145,-3.969l29.103 -17.505c0,0 11.968,-25.572 17.451,-33.902 5.484,-8.33 13.498,-19.403 18.454,-22.566 4.956,-3.164 11.81,-4.429 12.76,-5.378 0.949,-0.949 3.163,-7.382 2.214,-10.862 -0.95,-3.479 -0.403,-10.77 -0.403,-10.77z"/>
  <path class="fil2" d="M199.122 67.528c-0.527,-1.213 -0.909,-9.056 -3.532,-11.547 4.504,0.634 6.158,1.073 6.158,1.073 0,0 4.492,0.588 5.784,1.01 -7.962,1.898 -8.41,9.464 -8.41,9.464z"/>
  <path class="fil3" d="M199.412 67.607c0,0 0.343,-8.752 10.756,-10.018 12.259,2.109 14.104,18.454 19.008,26.679 -1.107,1.687 -10.018,-14.183 -10.018,-14.183 0,0 5.22,13.287 9.385,19.877 -1.476,1.477 -12.074,-20.879 -12.074,-20.879 0,0 4.323,14.605 7.856,21.776 -4.376,-1.688 -10.123,-19.509 -10.123,-19.509 0,0 2.162,13.762 5.061,20.827 -6.464,-4.052 -6.01,-18.032 -6.01,-18.032 0,0 0.527,12.179 1.318,18.823 -4.429,-8.805 -2.004,-20.352 -6.38,-26.099 -4.492,-5.899 -8.779,0.738 -8.779,0.738z"/>
  <path class="fil4" d="M206.663 79.708c-2.847,-0.211 -11.23,-7.751 -4.218,-14.5 4.404,-4.237 8.525,8.257 6.973,13.01 -1.342,1.71 -2.755,1.49 -2.755,1.49z"/>
  <path class="fil5" d="M147.053 166.451c0,0 25.94,-34.166 27.628,-35.854 1.687,-1.687 14.551,-24.2 28.365,-27.575 13.814,-3.374 20.036,0.949 21.407,2.847 1.371,1.899 2.847,13.603 -8.014,24.886 -10.861,11.283 -69.386,35.696 -69.386,35.696z"/>
  <path class="fil5" d="M196.034 91.37c0,0 -7.434,4.956 -9.78,8.304 -2.346,3.348 -39.755,65.959 -39.966,65.59 -0.211,-0.369 5.757,-27.047 17.499,-43.969 11.742,-16.923 20.937,-31.877 31.429,-31.033 1.868,0.187 0.818,1.108 0.818,1.108z"/>
  <path class="fil4" d="M196.613 119.287c0,0 -0.791,3.744 0.369,4.957 1.16,1.212 5.167,0.738 5.167,0.738 0,0 1.055,3.11 2.425,3.532 1.371,0.422 3.217,-0.843 3.217,-0.843 0,0 1.212,1.634 2.583,1.318 1.371,-0.317 1.687,-0.527 1.687,-0.527l1.477 -2.953c0,0 2.056,1.054 3.216,-0.422 1.16,-1.476 4.903,-4.482 5.641,-7.961 0.739,-3.48 1.266,-9.016 -1.845,-11.231 -3.111,-2.214 -7.909,-4.218 -12.179,-3.321 -4.271,0.896 -11.072,4.218 -12.18,6.221 -1.107,2.004 -0.527,5.167 -0.527,5.167 0,0 -1.687,2.637 -1.213,3.849 0.475,1.213 2.162,1.476 2.162,1.476z"/>
  <path class="fil4" d="M191.182 112.644c0,0 -5.853,6.221 -6.38,7.855 -0.527,1.635 0.527,5.589 0.527,5.589 0,0 -0.527,1.899 -0.052,3.322 0.474,1.424 3.163,2.794 3.163,2.794 0,0 0.913,2.14 1.994,3.221 1.08,1.08 2.484,1.547 4.307,0.628 1.276,1.267 2.452,1.477 3.717,1.371 1.265,-0.105 2.584,-0.58 2.584,-0.58 0,0 1.476,0.791 2.478,0.738 1.001,-0.052 1.265,-0.316 1.265,-0.316l2.32 -2.056c0,0 1.74,-0.317 2.9,-0.791 1.16,-0.475 5.009,-5.062 5.009,-5.062 0,0 -3.375,3.006 -4.587,3.006 -1.213,0 -2.426,0 -2.426,0 0,0 -2.003,1.687 -3.005,1.74 -1.002,0.052 -3.849,-1.002 -3.849,-1.002 0,0 -0.158,1.212 -1.845,1.054 -1.688,-0.158 -3.375,-1.529 -3.375,-1.529 0,0 -1.792,1.107 -3.321,-0.369 -1.529,-1.476 -1.529,-3.954 -1.529,-3.954 0,0 -1.424,0.423 -2.426,-1.74 -0.543,-1.174 -0.424,-2.982 0.686,-4.64 0,0 -1.266,-1.107 -1.529,-2.004 -0.704,-2.39 2.005,-5.169 3.374,-7.275z"/>
  <path class="fil4" d="M182.324 122.608c0,0 -4.851,5.484 -4.64,7.593 0.211,2.109 1.846,3.691 1.846,3.691 0,0 -0.686,1.74 0.263,3.11 0.949,1.371 3.217,1.002 3.217,1.002 0,0 0.158,3.058 1.212,3.638 1.055,0.58 3.111,-0.316 3.111,-0.316 0,0 1.002,1.265 2.214,1.318 1.213,0.053 2.742,-0.053 2.742,-0.053 0,0 1.582,0.158 2.795,0.158 1.212,0 3.005,-1.159 3.005,-1.159l1.687 -1.424 -2.214 -1.002c0,0 -0.949,1.477 -1.846,1.582 -0.896,0.105 -2.161,-1.529 -2.161,-1.529 0,0 -1.213,1.186 -2.294,1.292 -1.081,0.105 -1.819,-1.081 -1.819,-1.081 0,0 -1.898,0.632 -2.847,-0.158 -0.949,-0.791 -1.529,-3.269 -1.529,-3.269 0,0 -2.32,-0.317 -2.795,-1.424 -0.474,-1.107 -0.421,-2.689 -0.421,-2.689 0,0 -1.107,-0.263 -1.371,-1.687 -0.264,-1.424 1.845,-7.593 1.845,-7.593z"/>
  <path class="fil4" d="M175.628 130.728c0,0 -2.953,3.796 -2.847,5.483 0.105,1.687 1.239,3.164 1.239,3.164 0,0 -0.001,2.03 0.949,3.216 0.949,1.186 2.267,1.265 2.267,1.265 0,0 -0.04,1.252 1.094,1.938 0.906,0.548 1.445,0.416 2.227,0.092 0.949,1.239 2.241,1.2 2.979,0.949 0.475,0.765 2.267,0.079 2.267,0.079l0.976 -0.369c0,0 1.134,0.105 1.898,0.105 0.765,0 2.663,-1.318 2.663,-1.318l-3.533 -0.184c0,0 -0.079,0.659 -1.898,0.105 -1.819,-0.554 -2.214,-1.397 -2.214,-1.397 0,0 -1.582,0.554 -2.795,0.29 -1.213,-0.264 -1.608,-2.794 -1.608,-2.794 0,0 -1.872,0.369 -2.952,-0.87 -1.081,-1.239 -0.304,-3.045 -0.304,-3.045 0,0 -1.094,-0.422 -1.225,-1.49 -0.132,-1.067 0.817,-5.219 0.817,-5.219z"/>
  <path class="fil4" d="M177.803 102.374c0,0 0.579,0.185 1.95,-0.738 1.371,-0.923 9.728,-8.436 9.728,-8.436l1.529 0.264c0,0 -9.49,10.65 -9.807,10.281 -0.316,-0.369 -1.634,1.266 -2.109,1.318 -0.474,0.053 -1.16,-0.949 -1.16,-0.949 0,0 -1.845,2.584 -2.214,2.109 -0.369,-0.474 1.54,-3.86 1.54,-3.86l0.543 0.011z"/>
  <path class="fil4" d="M172.055 110.889c0,0 1.635,0.158 2.636,-0.316 1.002,-0.475 4.218,-3.375 4.218,-3.375l-3.532 5.642c0,0 -2.742,2.794 -3.954,2.847 -1.213,0.053 -2.373,-1.107 -2.373,-1.107l3.005 -3.691z"/>
  <path class="fil4" d="M164.331 121.25c0,0 1.634,-2.637 1.977,-2.768 0.343,-0.132 3.954,-0.238 5.193,-0.528 1.24,-0.29 -0.105,2.347 -0.922,2.689 -0.817,0.343 -4.482,2.03 -5.299,1.951 -0.817,-0.079 -0.949,-1.344 -0.949,-1.344z"/>
  <path class="fil4" d="M161.114 127.418l2.215 -0.975c0.694,-0.306 1.006,0.542 2.086,-0.104 1.081,-0.646 0.88,-1.306 0.88,-1.306l0.856 0.125c0.293,0.043 2.268,-2.709 2.624,-2.604 0.355,0.106 -3.56,5.747 -4.864,6.169 -1.305,0.422 -4.244,0.552 -4.298,0.488 -0.514,-0.62 0.501,-1.793 0.501,-1.793z"/>
  <path class="fil6" d="M173.015 176.625c0,0 -1.581,-0.211 -0.711,-2.135 1.212,-2.821 6.458,-2.953 6.748,-3.269 0.29,-0.317 -0.948,-15.686 0.634,-16.846l30.786 -17.814c0,0 -2.447,4.475 -3.501,5.213 -1.055,0.738 -7.118,4.112 -7.804,5.747 -0.685,1.634 -4.323,5.43 -5.641,6.116 -1.318,0.685 -10.176,2.372 -10.756,4.165 -0.58,1.793 -1.319,12.522 -0.475,13.392 1.055,1.556 5.273,9.121 5.273,9.121 0,0 -4.535,-4.745 -6.538,-5.272 -2.004,-0.527 -4.798,-1.819 -6.96,-0.475 -1.107,0.501 -1.055,2.057 -1.055,2.057z"/>
  <path class="fil7" d="M202.407 69.802c0.105,-1.634 3.005,-3.084 3.4,0.158 0.396,3.243 -3.954,2.241 -3.4,-0.158z"/>
  <path class="fil8" d="M204.015 69.169c0.791,0 0.975,1.345 0,1.398 -0.976,0.052 -0.554,-1.582 0,-1.398z"/>
  <path class="fil5" d="M198.933 111.11c0.369,-1.423 2.689,-6.169 9.543,-6.327 6.854,-0.158 11.012,3.128 11.434,6.291 0.422,3.164 -0.942,10.16 -3.631,11.214 -2.688,1.054 -2.425,1.371 -4.323,1.634 -1.898,0.264 -2.584,-0.896 -2.584,-0.896 -0.685,0.256 -1.498,0.782 -2.886,0.33 -1.266,-0.412 -0.804,-2.386 -0.804,-2.386 0,0 -2.862,-0.548 -3.435,-1.099 -0.605,-0.582 -1.248,-1.696 -0.783,-3.119 0,0 -2.531,0.264 -2.004,-1.318 0.527,-1.582 1.582,-3.217 1.582,-3.217l-2.109 -1.107z"/>
 </g>
</svg>
