<?xml version="1.0" encoding="UTF-8"?>
<!DOCTYPE svg PUBLIC "-//W3C//DTD SVG 1.1//EN" "http://www.w3.org/Graphics/SVG/1.1/DTD/svg11.dtd">
<!-- Creator: CorelDRAW 2019 (64-Bit) -->
<svg xmlns="http://www.w3.org/2000/svg" xml:space="preserve" width="10mm" height="10mm" version="1.1" style="shape-rendering:geometricPrecision; text-rendering:geometricPrecision; image-rendering:optimizeQuality; fill-rule:evenodd; clip-rule:evenodd"
viewBox="0 0 1000 1000"
 xmlns:xlink="http://www.w3.org/1999/xlink"
 xmlns:xodm="http://www.corel.com/coreldraw/odm/2003">
 <defs>
  <style type="text/css">
   <![CDATA[
    .fil2 {fill:#FEFEFE}
    .fil0 {fill:#FFED00}
    .fil1 {fill:#E31E24}
   ]]>
  </style>
 </defs>
 <g id="Слой_x0020_1">
  <metadata id="CorelCorpID_0Corel-Layer"/>
  <path class="fil0" d="M18.52 509.25c3.18,-190.3 121.56,-490.71 455.07,-490.71 333.51,0 484.99,255.86 490.72,493.26 5.72,237.4 -167.39,502.81 -465.89,495.81 -298.5,-7.01 -476.71,-231.68 -479.9,-498.36z"/>
  <path class="fil1" d="M483.3 64.28c225.94,-7 428.97,212.58 432.79,449.34 3.82,236.77 -183.93,451.89 -422.61,444.89 -238.67,-7 -450.36,-181.95 -434.06,-462.71 14.85,-255.99 210.66,-445.52 423.88,-431.52z"/>
  <path class="fil2" d="M465.65 484.75c0,0 12.73,-229.12 -5.1,-278.77 -17.82,-49.64 -85.28,-73.83 -132.38,-58.55 -47.1,15.27 -76.42,78.09 -62.42,120.1 -23.23,17.82 -81.42,-19.54 -114.52,56.83 -33.09,76.38 -10.18,100.57 17.82,132.39 28.01,31.82 296.6,28 296.6,28z"/>
  <path class="fil1" d="M422.37 440.2c0,0 -3.82,-52.83 -10.19,-85.92 -6.36,-33.1 -29.27,-32.46 -38.18,-54.1 14,-8.91 28.64,-14.64 28.64,-35.01 0,-20.36 -30.87,-43.91 -33.42,-43.6 -3.81,33.74 -21.55,62.76 -56.32,37.87 -16.44,-11.76 -15.6,-65.23 30.23,-76.37 45.82,-11.14 49.96,2.54 76.06,33.73 26.09,31.19 13.04,245.67 13.04,245.67 0,0 -185.2,0.64 -221.48,-16.54 -36.28,-17.19 -41.69,-56.97 -35.33,-83.7 6.37,-26.73 25.78,-49.32 49.33,-49.32 41.53,0 59.48,57.64 -8.91,68.73 0,0 18.3,34.37 37.39,33.74 19.09,-0.64 26.28,-5.37 39.62,-16.07 4.9,13.16 7,18.61 31.19,27.52 24.18,8.91 45.82,9.55 59.82,8.91 14.01,-0.63 38.51,4.46 38.51,4.46z"/>
  <path class="fil1" d="M314.49 324.36c0,0 51.87,14.8 70.01,40.74 18.14,25.93 -5.73,52.82 -29.91,41.37 -24.19,-11.46 -40.1,-82.11 -40.1,-82.11z"/>
  <path class="fil2" d="M508.46 492.39c0,0 -2.54,-244.72 3.82,-268.27 6.37,-23.55 59.83,-89.74 120.3,-79.56 60.46,10.19 92.34,91.6 87.19,119.66 21.9,-6.47 158.48,8.27 110.11,172.48 -40.1,61.1 -73.19,57.92 -104.38,61.1 -31.19,3.18 -217.04,-5.41 -217.04,-5.41z"/>
  <path class="fil1" d="M540.93 454.21c0,0 -7.63,-168.35 0,-205.58 7.64,-37.23 53.79,-88.47 106.3,-57.92 52.5,30.55 23.23,80.2 6.68,78.29 -16.55,-1.91 -37.55,-12.1 -28.01,-51.56 -15.27,-4.13 -73.83,36.6 -17.5,84.97 -31.5,26.1 -47.73,49.32 -42.01,129.84 54.1,-0.31 77.81,6.2 100.72,-6.53 13.45,-7.46 17.95,-18.69 26.89,-31.34 0,0 43.55,33.16 59.35,5.57 15.81,-27.59 14.64,-38.35 7.48,-43.12 -19.3,3.99 -38.73,-0.56 -39.14,-17.19 -0.32,-13.04 11.14,-34.37 25.14,-34.37 14,0 55.69,18.46 55.69,64.92 0,46.47 -29.27,76.38 -43.91,84.02 -14.64,7.63 -217.68,0 -217.68,0z"/>
  <path class="fil2" d="M249.63 756.33c0,0 -80.09,-4.03 -98.33,-52.82 -74.45,-199.15 178.19,-183.13 316.32,-175.67 12.14,119.47 10.17,308.29 -43.28,337.33 -154.8,84.13 -174.71,-108.84 -174.71,-108.84z"/>
  <path class="fil1" d="M212.4 649.09c0,0 4.77,-29.91 30.55,-36.91 25.78,-7 49.01,10.5 47.73,25.77 4.14,-0.95 15.28,-37.55 41.69,-46.14 26.41,-8.59 82.42,-8.91 82.42,-8.91 4.2,71.35 8.62,87.33 -49.64,130.16 41.14,31.46 31.24,63.41 -9.55,88.15 0,0 6.72,-24.22 -7.95,-38.83 -68.57,-68.26 -85.53,103.7 38.82,77.97 36.69,-7.59 50.92,-63.97 49.96,-74.15 -0.95,-10.18 -1.9,-204.3 -1.9,-204.3 0,0 -193.8,-3.5 -219.58,10.82 -52.62,29.23 -66.53,131.97 10.18,132.06 28.26,0.04 48.22,-50.15 -12.73,-55.69z"/>
  <path class="fil1" d="M317.1 688.55c-10.5,-8.91 37.55,-113.27 70.37,-71.28 23.79,30.44 -53.24,82.28 -70.37,71.28z"/>
  <path class="fil2" d="M509.95 531.67c0,0 223.39,3.18 239.94,6.37 16.55,3.18 111.08,32.42 97.71,134.26 -13.37,101.83 -121.26,85.95 -121.26,85.95 0,0 15.28,78.29 -47.09,108.84 -62.38,30.55 -141.94,1.27 -161.67,-84.01 -19.73,-85.29 -7.63,-251.41 -7.63,-251.41z"/>
  <path class="fil1" d="M561.5 588.32c64.6,-22.08 88.28,-2.09 121.57,52.82 0,0 23.86,-29.59 52.5,-23.23 28.64,6.37 28.96,40.42 28.96,40.42 -77.58,18.32 3.93,88.56 35.65,34.37 15.27,-26.1 7,-63.65 -19.1,-99.29 -26.09,-35.64 -237.4,-28.64 -237.4,-28.64l1.27 215.12c0,0 17.19,41.37 50.28,51.56 94.47,29.06 99.17,-63.94 66.83,-74.47 -10.19,-3.32 -27.39,0.1 -26.73,38.19 -57.69,-7.11 -47.72,-49.14 -26.09,-88.47 0,0 -24.83,0 -36.92,-22.91 -12.09,-22.91 -10.82,-95.47 -10.82,-95.47z"/>
  <path class="fil1" d="M668.27 682.04c0,0 -114.25,-23.23 -73.83,-63.65 40.41,-40.42 73.83,63.65 73.83,63.65z"/>
  <path class="fil2" d="M494.2 806.79c0,0 -82.11,127.93 -5.73,136.84 76.37,8.91 35.64,-120.93 5.73,-136.84z"/>
  <path class="fil2" d="M767.87 510.99c0,0 62.38,-33.73 81.95,-32.3 19.57,1.43 46.62,17.03 47.58,37.39 0.95,20.37 -22.12,36.28 -44.24,34.53 -22.11,-1.75 -85.29,-39.62 -85.29,-39.62z"/>
  <path class="fil2" d="M493.47 221.8c0,0 -87.83,-141.93 -8.59,-141.61 79.24,0.32 8.59,141.61 8.59,141.61z"/>
  <path class="fil2" d="M201.98 506.63c0,0 -135.89,-78.29 -136.53,-1.28 -0.63,77.02 136.53,1.28 136.53,1.28z"/>
  <path class="fil1" d="M674.07 321.01c0,0 -105.18,40.35 -66.35,70.26 38.82,29.92 66.19,-79.55 66.35,-70.26z"/>
 </g>
</svg>
