<?xml version="1.0" encoding="UTF-8"?>
<!DOCTYPE svg PUBLIC "-//W3C//DTD SVG 1.1//EN" "http://www.w3.org/Graphics/SVG/1.1/DTD/svg11.dtd">
<!-- Creator: CorelDRAW 2019 (64-Bit) -->
<svg xmlns="http://www.w3.org/2000/svg" xml:space="preserve" width="10mm" height="10mm" version="1.1" style="shape-rendering:geometricPrecision; text-rendering:geometricPrecision; image-rendering:optimizeQuality; fill-rule:evenodd; clip-rule:evenodd"
viewBox="0 0 1000 1000"
 xmlns:xlink="http://www.w3.org/1999/xlink"
 xmlns:xodm="http://www.corel.com/coreldraw/odm/2003">
 <defs>
  <style type="text/css">
   <![CDATA[
    .fil1 {fill:#FEFEFE}
    .fil0 {fill:#BBC274}
   ]]>
  </style>
 </defs>
 <g id="Слой_x0020_1">
  <metadata id="CorelCorpID_0Corel-Layer"/>
  <path class="fil0" d="M477.96 38.88c233.53,-7.23 443.39,219.72 447.33,464.43 3.95,244.72 -190.11,467.06 -436.79,459.83 -246.69,-7.24 -465.49,-188.06 -448.65,-478.24 15.36,-264.59 217.74,-460.48 438.11,-446.02z"/>
  <path class="fil1" d="M459.72 473.47c0,0 13.16,-236.82 -5.26,-288.13 -18.42,-51.31 -88.15,-76.3 -136.83,-60.52 -48.68,15.79 -78.99,80.72 -64.52,124.13 -24.01,18.42 -84.15,-20.19 -118.36,58.75 -34.2,78.94 -10.52,103.94 18.42,136.83 28.95,32.89 306.55,28.94 306.55,28.94z"/>
  <path class="fil0" d="M414.99 427.43c0,0 -3.95,-54.61 -10.53,-88.81 -6.57,-34.21 -30.25,-33.55 -39.46,-55.92 14.47,-9.21 29.6,-15.13 29.6,-36.18 0,-21.05 -31.91,-45.39 -34.54,-45.06 -3.94,34.87 -22.28,64.87 -58.22,39.14 -16.98,-12.16 -16.11,-67.43 31.25,-78.94 47.36,-11.51 51.64,2.63 78.61,34.87 26.97,32.23 13.49,253.92 13.49,253.92 0,0 -191.43,0.66 -228.93,-17.11 -37.49,-17.76 -43.08,-58.87 -36.51,-86.5 6.58,-27.63 26.65,-50.98 50.99,-50.98 42.92,0 61.48,59.58 -9.21,71.04 0,0 18.91,35.53 38.64,34.87 19.74,-0.66 27.17,-5.55 40.95,-16.61 5.07,13.61 7.24,19.24 32.24,28.45 25,9.21 47.36,9.87 61.83,9.21 14.48,-0.66 39.8,4.61 39.8,4.61z"/>
  <path class="fil0" d="M303.49 307.7c0,0 53.61,15.29 72.36,42.1 18.75,26.81 -5.92,54.6 -30.92,42.76 -24.99,-11.84 -41.44,-84.86 -41.44,-84.86z"/>
  <path class="fil1" d="M503.98 481.37c0,0 -2.63,-252.94 3.95,-277.28 6.58,-24.34 61.83,-92.75 124.33,-82.23 62.49,10.53 95.44,94.68 90.12,123.68 22.64,-6.69 163.8,8.55 113.81,178.27 -41.45,63.15 -75.66,59.86 -107.89,63.15 -32.23,3.29 -224.32,-5.59 -224.32,-5.59z"/>
  <path class="fil0" d="M537.54 441.9c0,0 -7.89,-173.99 0,-212.48 7.89,-38.48 55.59,-91.44 109.86,-59.86 54.27,31.58 24.01,82.89 6.91,80.91 -17.11,-1.97 -38.82,-12.49 -28.95,-53.28 -15.79,-4.28 -76.31,37.83 -18.09,87.82 -32.56,26.97 -49.33,50.97 -43.42,134.2 55.91,-0.32 80.42,6.41 104.1,-6.75 13.9,-7.72 18.55,-19.32 27.8,-32.39 0,0 45.01,34.27 61.34,5.75 16.34,-28.52 15.13,-39.63 7.73,-44.57 -19.96,4.13 -40.04,-0.57 -40.46,-17.76 -0.32,-13.48 11.52,-35.52 25.99,-35.52 14.47,0 57.56,19.08 57.56,67.1 0,48.02 -30.26,78.94 -45.39,86.83 -15.13,7.9 -224.98,0 -224.98,0z"/>
  <path class="fil1" d="M236.46 754.17c0,0 -82.78,-4.17 -101.64,-54.6 -76.95,-205.83 184.17,-189.27 326.94,-181.56 12.55,123.48 10.51,318.64 -44.73,348.66 -160,86.95 -180.57,-112.5 -180.57,-112.5z"/>
  <path class="fil0" d="M197.97 643.33c0,0 4.94,-30.92 31.58,-38.15 26.64,-7.24 50.65,10.85 49.34,26.64 4.27,-0.99 15.78,-38.81 43.08,-47.69 27.3,-8.88 85.19,-9.21 85.19,-9.21 4.34,73.74 8.91,90.26 -51.31,134.52 42.53,32.52 32.29,65.55 -9.87,91.11 0,0 6.95,-25.03 -8.22,-40.12 -70.87,-70.56 -88.39,107.17 40.13,80.58 37.92,-7.85 52.63,-66.11 51.64,-76.64 -0.99,-10.52 -1.97,-211.16 -1.97,-211.16 0,0 -200.31,-3.62 -226.95,11.18 -54.38,30.21 -68.77,136.41 10.52,136.5 29.21,0.04 49.84,-51.83 -13.16,-57.56z"/>
  <path class="fil0" d="M306.19 684.12c-10.86,-9.21 38.81,-117.08 72.73,-73.68 24.59,31.47 -55.03,85.04 -72.73,73.68z"/>
  <path class="fil1" d="M505.51 521.97c0,0 230.9,3.29 248,6.58 17.11,3.29 114.81,33.51 100.99,138.77 -13.81,105.25 -125.33,88.84 -125.33,88.84 0,0 15.79,80.91 -48.68,112.49 -64.46,31.57 -146.69,1.31 -167.09,-86.84 -20.39,-88.15 -7.89,-259.84 -7.89,-259.84z"/>
  <path class="fil0" d="M558.8 580.52c66.77,-22.82 91.24,-2.16 125.64,54.6 0,0 24.67,-30.59 54.27,-24.01 29.6,6.57 29.93,41.77 29.93,41.77 -80.19,18.93 4.06,91.53 36.84,35.52 15.79,-26.97 7.24,-65.78 -19.73,-102.62 -26.97,-36.84 -245.37,-29.6 -245.37,-29.6l1.31 222.34c0,0 17.77,42.77 51.97,53.29 97.64,30.04 102.5,-66.08 69.07,-76.97 -10.53,-3.42 -28.3,0.1 -27.63,39.47 -59.62,-7.35 -49.32,-50.79 -26.97,-91.44 0,0 -25.65,0 -38.15,-23.68 -12.5,-23.68 -11.18,-98.67 -11.18,-98.67z"/>
  <path class="fil0" d="M669.15 677.38c0,0 -118.08,-24.01 -76.31,-65.78 41.77,-41.77 76.31,65.78 76.31,65.78z"/>
  <path class="fil1" d="M489.23 806.32c0,0 -84.86,132.22 -5.92,141.43 78.94,9.21 36.84,-124.99 5.92,-141.43z"/>
  <path class="fil1" d="M772.1 500.59c0,0 64.47,-34.86 84.69,-33.38 20.23,1.48 48.19,17.6 49.18,38.65 0.99,21.05 -22.86,37.49 -45.72,35.68 -22.86,-1.8 -88.15,-40.95 -88.15,-40.95z"/>
  <path class="fil1" d="M488.48 201.7c0,0 -90.78,-146.7 -8.88,-146.37 81.9,0.33 8.88,146.37 8.88,146.37z"/>
  <path class="fil1" d="M187.2 496.08c0,0 -140.45,-80.91 -141.11,-1.31 -0.65,79.6 141.11,1.31 141.11,1.31z"/>
  <path class="fil0" d="M675.14 304.23c0,0 -108.71,41.71 -68.58,72.63 40.13,30.91 68.42,-82.23 68.58,-72.63z"/>
 </g>
</svg>
